<?xml version="1.0" standalone="no"?>
<!DOCTYPE svg PUBLIC "-//W3C//DTD SVG 20010904//EN"
 "http://www.w3.org/TR/2001/REC-SVG-20010904/DTD/svg10.dtd">
<svg version="1.0" xmlns="http://www.w3.org/2000/svg"
 width="500.000000pt" height="500.000000pt" viewBox="0 0 500.000000 500.000000"
 preserveAspectRatio="xMidYMid meet">
<metadata>
Created by potrace 1.11, written by Peter Selinger 2001-2013
</metadata>
<g transform="translate(0.000000,500.000000) scale(0.100000,-0.100000)"
fill="#000000" stroke="none">
<path d="M0 2500 l0 -2500 2500 0 2500 0 0 2500 0 2500 -2500 0 -2500 0 0
-2500z m2147 473 c-3 -590 -5 -634 -24 -718 -29 -128 -71 -206 -157 -290 -79
-77 -176 -133 -286 -162 -94 -26 -383 -25 -495 0 -216 50 -366 185 -430 390
-21 66 -39 162 -40 212 0 6 117 26 260 46 l260 35 11 -81 c21 -147 70 -205
174 -205 102 0 152 57 170 193 5 39 10 327 10 640 l0 567 276 0 275 0 -4 -627z
m1662 605 c134 -41 247 -133 296 -240 94 -206 16 -446 -175 -542 l-70 -34 65
-22 c175 -58 271 -172 298 -352 22 -150 -23 -293 -126 -404 -142 -153 -262
-174 -1018 -174 l-509 0 0 896 0 895 593 -4 c512 -3 599 -5 646 -19z"/>
<path d="M3138 3234 c-5 -4 -8 -81 -8 -171 l0 -165 178 4 c157 3 181 5 212 24
53 31 80 77 80 138 0 73 -25 116 -83 145 -43 21 -65 24 -210 29 -89 2 -165 1
-169 -4z"/>
<path d="M3137 2553 c-4 -3 -7 -84 -7 -180 l0 -173 188 0 c206 0 246 7 296 50
45 40 59 79 54 145 -11 130 -91 164 -389 165 -75 0 -139 -3 -142 -7z"/>
</g>
</svg>
